<svg width="87" height="14" viewBox="0 0 87 14" fill="none" xmlns="http://www.w3.org/2000/svg">
<path d="M11.0264 8.19762C10.847 8.37025 10.7646 8.61989 10.8054 8.86473L11.4212 12.2484C11.4731 12.5352 11.3512 12.8254 11.1095 12.9911C10.8726 13.1631 10.5574 13.1837 10.2991 13.0462L7.23129 11.4575C7.12462 11.4011 7.00618 11.3708 6.88496 11.3674H6.69725C6.63214 11.377 6.56842 11.3977 6.51023 11.4293L3.44175 13.0255C3.29005 13.1012 3.11827 13.128 2.94996 13.1012C2.5399 13.0241 2.2663 12.6363 2.33349 12.2271L2.94996 8.84341C2.99082 8.59651 2.9084 8.34549 2.729 8.17011L0.227799 5.76304C0.0186158 5.56154 -0.0541136 5.25894 0.0414736 4.9859C0.13429 4.71356 0.37118 4.51481 0.657249 4.4701L4.09977 3.97425C4.3616 3.94743 4.59156 3.78925 4.70931 3.55542L6.22624 0.467489C6.26226 0.398716 6.30867 0.335444 6.36477 0.281801L6.42711 0.23366C6.45967 0.197898 6.49707 0.168325 6.53863 0.144254L6.61413 0.116745L6.73188 0.0686035H7.02349C7.28393 0.0954252 7.5132 0.250165 7.63303 0.481244L9.17005 3.55542C9.28087 3.78031 9.49629 3.93642 9.74496 3.97425L13.1875 4.4701C13.4784 4.51137 13.7215 4.71081 13.8178 4.9859C13.9085 5.26169 13.8303 5.56429 13.6169 5.76304L11.0264 8.19762Z" fill="#FAAF05"/>
<path d="M29.3126 8.12902C29.1332 8.30164 29.0508 8.55129 29.0917 8.79612L29.7075 12.1798C29.7594 12.4666 29.6375 12.7568 29.3958 12.9225C29.1589 13.0945 28.8437 13.1151 28.5853 12.9775L25.5175 11.3889C25.4109 11.3325 25.2924 11.3022 25.1712 11.2988H24.9835C24.9184 11.3084 24.8547 11.329 24.7965 11.3607L21.728 12.9569C21.5763 13.0326 21.4045 13.0594 21.2362 13.0326C20.8262 12.9555 20.5526 12.5677 20.6197 12.1585L21.2362 8.7748C21.2771 8.52791 21.1947 8.27688 21.0153 8.10151L18.5141 5.69444C18.3049 5.49293 18.2321 5.19033 18.3277 4.9173C18.4205 4.64496 18.6574 4.4462 18.9435 4.4015L22.386 3.90564C22.6479 3.87882 22.8778 3.72064 22.9956 3.48681L24.5125 0.398886C24.5485 0.330113 24.5949 0.266841 24.651 0.213198L24.7134 0.165056C24.7459 0.129294 24.7833 0.0997215 24.8249 0.0756508L24.9004 0.0481414L25.0181 0H25.3097C25.5702 0.0268216 25.7995 0.181562 25.9193 0.412641L27.4563 3.48681C27.5671 3.7117 27.7825 3.86782 28.0312 3.90564L31.4737 4.4015C31.7647 4.44276 32.0078 4.64221 32.1041 4.9173C32.1948 5.19308 32.1165 5.49569 31.9032 5.69444L29.3126 8.12902Z" fill="#FAAF05"/>
<path d="M47.5989 8.12902C47.4195 8.30164 47.337 8.55129 47.3779 8.79612L47.9937 12.1798C48.0456 12.4666 47.9237 12.7568 47.682 12.9225C47.4451 13.0945 47.1299 13.1151 46.8716 12.9775L43.8038 11.3889C43.6971 11.3325 43.5787 11.3022 43.4574 11.2988H43.2697C43.2046 11.3084 43.1409 11.329 43.0827 11.3607L40.0142 12.9569C39.8625 13.0326 39.6908 13.0594 39.5224 13.0326C39.1124 12.9555 38.8388 12.5677 38.906 12.1585L39.5224 8.7748C39.5633 8.52791 39.4809 8.27688 39.3015 8.10151L36.8003 5.69444C36.5911 5.49293 36.5184 5.19033 36.614 4.9173C36.7068 4.64496 36.9437 4.4462 37.2297 4.4015L40.6723 3.90564C40.9341 3.87882 41.164 3.72064 41.2818 3.48681L42.7987 0.398886C42.8347 0.330113 42.8811 0.266841 42.9373 0.213198L42.9996 0.165056C43.0321 0.129294 43.0696 0.0997215 43.1111 0.0756508L43.1866 0.0481414L43.3044 0H43.596C43.8564 0.0268216 44.0857 0.181562 44.2055 0.412641L45.7425 3.48681C45.8534 3.7117 46.0688 3.86782 46.3174 3.90564L49.76 4.4015C50.0509 4.44276 50.294 4.64221 50.3903 4.9173C50.481 5.19308 50.4028 5.49569 50.1894 5.69444L47.5989 8.12902Z" fill="#FAAF05"/>
<path d="M65.8851 8.12902C65.7057 8.30164 65.6233 8.55129 65.6642 8.79612L66.2799 12.1798C66.3319 12.4666 66.21 12.7568 65.9682 12.9225C65.7313 13.0945 65.4162 13.1151 65.1578 12.9775L62.09 11.3889C61.9834 11.3325 61.8649 11.3022 61.7437 11.2988H61.556C61.4909 11.3084 61.4271 11.329 61.369 11.3607L58.3005 12.9569C58.1488 13.0326 57.977 13.0594 57.8087 13.0326C57.3986 12.9555 57.125 12.5677 57.1922 12.1585L57.8087 8.7748C57.8496 8.52791 57.7671 8.27688 57.5877 8.10151L55.0865 5.69444C54.8773 5.49293 54.8046 5.19033 54.9002 4.9173C54.993 4.64496 55.2299 4.4462 55.516 4.4015L58.9585 3.90564C59.2203 3.87882 59.4503 3.72064 59.568 3.48681L61.085 0.398886C61.121 0.330113 61.1674 0.266841 61.2235 0.213198L61.2858 0.165056C61.3184 0.129294 61.3558 0.0997215 61.3974 0.0756508L61.4729 0.0481414L61.5906 0H61.8822C62.1427 0.0268216 62.3719 0.181562 62.4918 0.412641L64.0288 3.48681C64.1396 3.7117 64.355 3.86782 64.6037 3.90564L68.0462 4.4015C68.3371 4.44276 68.5803 4.64221 68.6765 4.9173C68.7673 5.19308 68.689 5.49569 68.4757 5.69444L65.8851 8.12902Z" fill="#FAAF05"/>
<path d="M84.1714 8.12902C83.992 8.30164 83.9095 8.55129 83.9504 8.79612L84.5662 12.1798C84.6181 12.4666 84.4962 12.7568 84.2545 12.9225C84.0176 13.0945 83.7024 13.1151 83.4441 12.9775L80.3763 11.3889C80.2696 11.3325 80.1512 11.3022 80.0299 11.2988H79.8422C79.7771 11.3084 79.7134 11.329 79.6552 11.3607L76.5867 12.9569C76.435 13.0326 76.2632 13.0594 76.0949 13.0326C75.6849 12.9555 75.4113 12.5677 75.4785 12.1585L76.0949 8.7748C76.1358 8.52791 76.0534 8.27688 75.874 8.10151L73.3728 5.69444C73.1636 5.49293 73.0909 5.19033 73.1864 4.9173C73.2793 4.64496 73.5162 4.4462 73.8022 4.4015L77.2447 3.90564C77.5066 3.87882 77.7365 3.72064 77.8543 3.48681L79.3712 0.398886C79.4072 0.330113 79.4536 0.266841 79.5097 0.213198L79.5721 0.165056C79.6046 0.129294 79.642 0.0997215 79.6836 0.0756508L79.7591 0.0481414L79.8769 0H80.1685C80.4289 0.0268216 80.6582 0.181562 80.778 0.412641L82.315 3.48681C82.4258 3.7117 82.6413 3.86782 82.8899 3.90564L86.3325 4.4015C86.6234 4.44276 86.8665 4.64221 86.9628 4.9173C87.0535 5.19308 86.9752 5.49569 86.7619 5.69444L84.1714 8.12902Z" fill="#FAAF05"/>
</svg>
